<mxfile host="app.diagrams.net" modified="2023-10-27T00:50:33.437Z" agent="Mozilla/5.0 (Windows NT 10.0; Win64; x64) AppleWebKit/537.36 (KHTML, like Gecko) Chrome/118.0.0.0 Safari/537.36" etag="f-SbWq2bkKX-S4WOggIj" version="21.8.0" type="github">
  <diagram name="第 1 页" id="nvpzna9e1GnrQh9cRXuR">
    <mxGraphModel dx="1562" dy="862" grid="1" gridSize="10" guides="1" tooltips="1" connect="1" arrows="1" fold="1" page="1" pageScale="1" pageWidth="827" pageHeight="1169" math="0" shadow="0">
      <root>
        <mxCell id="0" />
        <mxCell id="1" parent="0" />
        <mxCell id="T2e1q8e19z0jkwDY4RHi-13" style="edgeStyle=orthogonalEdgeStyle;rounded=0;orthogonalLoop=1;jettySize=auto;html=1;exitX=1;exitY=0.5;exitDx=0;exitDy=0;exitPerimeter=0;" edge="1" parent="1" source="T2e1q8e19z0jkwDY4RHi-1" target="T2e1q8e19z0jkwDY4RHi-12">
          <mxGeometry relative="1" as="geometry" />
        </mxCell>
        <mxCell id="T2e1q8e19z0jkwDY4RHi-1" value="" style="sketch=0;points=[[0,0,0],[0.25,0,0],[0.5,0,0],[0.75,0,0],[1,0,0],[0,1,0],[0.25,1,0],[0.5,1,0],[0.75,1,0],[1,1,0],[0,0.25,0],[0,0.5,0],[0,0.75,0],[1,0.25,0],[1,0.5,0],[1,0.75,0]];outlineConnect=0;fontColor=#232F3E;fillColor=#8C4FFF;strokeColor=#ffffff;dashed=0;verticalLabelPosition=bottom;verticalAlign=top;align=center;html=1;fontSize=12;fontStyle=0;aspect=fixed;shape=mxgraph.aws4.resourceIcon;resIcon=mxgraph.aws4.managed_streaming_for_kafka;" vertex="1" parent="1">
          <mxGeometry x="330" y="90" width="78" height="78" as="geometry" />
        </mxCell>
        <mxCell id="T2e1q8e19z0jkwDY4RHi-6" value="审批服务" style="swimlane;fontStyle=0;childLayout=stackLayout;horizontal=1;startSize=30;horizontalStack=0;resizeParent=1;resizeParentMax=0;resizeLast=0;collapsible=1;marginBottom=0;whiteSpace=wrap;html=1;" vertex="1" parent="1">
          <mxGeometry x="80" y="230" width="140" height="150" as="geometry" />
        </mxCell>
        <mxCell id="T2e1q8e19z0jkwDY4RHi-8" value="1.保存审批数据&lt;br&gt;2.保存发送消息数据&lt;br&gt;T_KAFKA_SEND_MSG&lt;br&gt;&lt;br&gt;3.发送kafka消息&lt;br&gt;&lt;br&gt;1.2 步骤在一个事务里面。" style="text;strokeColor=none;fillColor=none;align=left;verticalAlign=middle;spacingLeft=4;spacingRight=4;overflow=hidden;points=[[0,0.5],[1,0.5]];portConstraint=eastwest;rotatable=0;whiteSpace=wrap;html=1;" vertex="1" parent="T2e1q8e19z0jkwDY4RHi-6">
          <mxGeometry y="30" width="140" height="120" as="geometry" />
        </mxCell>
        <mxCell id="T2e1q8e19z0jkwDY4RHi-10" style="edgeStyle=orthogonalEdgeStyle;rounded=0;orthogonalLoop=1;jettySize=auto;html=1;exitX=1;exitY=0.5;exitDx=0;exitDy=0;entryX=0;entryY=0.5;entryDx=0;entryDy=0;entryPerimeter=0;" edge="1" parent="1" source="T2e1q8e19z0jkwDY4RHi-8" target="T2e1q8e19z0jkwDY4RHi-1">
          <mxGeometry relative="1" as="geometry" />
        </mxCell>
        <mxCell id="T2e1q8e19z0jkwDY4RHi-11" value="案件服务" style="swimlane;fontStyle=0;childLayout=stackLayout;horizontal=1;startSize=30;horizontalStack=0;resizeParent=1;resizeParentMax=0;resizeLast=0;collapsible=1;marginBottom=0;whiteSpace=wrap;html=1;" vertex="1" parent="1">
          <mxGeometry x="530" y="230" width="120" height="150" as="geometry" />
        </mxCell>
        <mxCell id="T2e1q8e19z0jkwDY4RHi-12" value="1.保存审批数据&lt;br&gt;2.保存发送消息数据&lt;br&gt;3.发送kafka消息&lt;br&gt;&lt;br&gt;1.2 步骤在一个事务里面。" style="text;strokeColor=none;fillColor=none;align=left;verticalAlign=middle;spacingLeft=4;spacingRight=4;overflow=hidden;points=[[0,0.5],[1,0.5]];portConstraint=eastwest;rotatable=0;whiteSpace=wrap;html=1;" vertex="1" parent="T2e1q8e19z0jkwDY4RHi-11">
          <mxGeometry y="30" width="120" height="120" as="geometry" />
        </mxCell>
      </root>
    </mxGraphModel>
  </diagram>
</mxfile>
